# xmcd
#
# Track frame offsets: 
#        150
#        22578
#        41328
#        57676
#        76302
#        97517
#        118920
#        137374
#        155359
#        179995
#        195284
#        214208
#        235180
#        257252
#        269068
#        284123
#        301283
#        322965
#
# Disc length: 4521 seconds
#
# Revision: 0
# Processed by: cddbd v1.5.1PL2 Copyright (c) Steve Scherf et al.
# Submitted via: ExactAudioCopy v0.95a5
#
DISCID=f511a712
DTITLE=田震 - 青春之歌
DYEAR=1900
DGENRE=Acid
TTITLE0=爱不后悔
TTITLE1=靠近我
TTITLE2=平安中国
TTITLE3=HI呀
TTITLE4=执着
TTITLE5=逍遥游
TTITLE6=有心VS苏永康
TTITLE7=明白
TTITLE8=天边的虹
TTITLE9=干杯朋友
TTITLE10=顺其自然
TTITLE11=为爱而歌
TTITLE12=爱情守望者
TTITLE13=白兰鸽
TTITLE14=阿里山的姑娘
TTITLE15=草原之夜
TTITLE16=阳光下的田震
TTITLE17=风雨彩虹铿锵玫瑰
EXTD=
EXTT0=
EXTT1=
EXTT2=
EXTT3=
EXTT4=
EXTT5=
EXTT6=
EXTT7=
EXTT8=
EXTT9=
EXTT10=
EXTT11=
EXTT12=
EXTT13=
EXTT14=
EXTT15=
EXTT16=
EXTT17=
PLAYORDER=
